<mxfile host="app.diagrams.net" modified="2023-12-13T11:43:08.099Z" agent="Mozilla/5.0 (Windows NT 10.0; Win64; x64) AppleWebKit/537.36 (KHTML, like Gecko) Chrome/119.0.0.0 Safari/537.36 Edg/119.0.0.0" version="22.1.8" etag="htoZZDAh3sxL3B_BYOBC" type="github">
  <diagram name="ページ1" id="wHj56v0oZ02i9ZqQ-0CH">
    <mxGraphModel>
      <root>
        <mxCell id="0" />
        <mxCell id="1" parent="0" />
      </root>
    </mxGraphModel>
  </diagram>
</mxfile>
